<svg width="2939" height="512" viewBox="0 0 2939 512" fill="none" xmlns="http://www.w3.org/2000/svg">
<path d="M723 377L737.4 326.3V288.2L759.6 279.2L798.6 164.9H876.3L924.6 299.3L947.7 341.9V377H894.6L879.6 329H792.3L779.4 377H723ZM812.1 282.8H863.1L840.3 214.1H834L812.1 282.8ZM1020.47 380C1006.87 380 995.966 376 987.766 368C979.566 360 975.466 349.9 975.466 337.7V272.3H953.566V243.8L972.466 229.1L993.766 191.9H1029.17V235.4H1071.17V274.4H1029.17V338.6L1071.17 338.3V371C1071.17 371 1068.77 371.8 1063.97 373.4C1059.37 374.8 1053.27 376.2 1045.67 377.6C1038.07 379.2 1029.67 380 1020.47 380ZM1164.36 380C1139.96 380 1121.06 374.2 1107.66 362.6C1094.26 351 1087.56 332.2 1087.56 306.2C1087.56 280 1094.26 261.2 1107.66 249.8C1121.06 238.2 1139.96 232.4 1164.36 232.4C1189.36 232.4 1208.26 238.2 1221.06 249.8C1234.06 261.2 1240.56 280 1240.56 306.2C1240.56 332.2 1234.06 351 1221.06 362.6C1208.26 374.2 1189.36 380 1164.36 380ZM1164.36 341C1172.56 341 1178.26 338 1181.46 332C1184.66 325.8 1186.26 317.2 1186.26 306.2C1186.26 295 1184.66 286.4 1181.46 280.4C1178.26 274.4 1172.56 271.4 1164.36 271.4C1155.96 271.4 1150.06 274.4 1146.66 280.4C1143.46 286.4 1141.86 295 1141.86 306.2C1141.86 317.2 1143.46 325.8 1146.66 332C1150.06 338 1155.96 341 1164.36 341ZM1259.93 253.7L1269.23 235.4H1313.93V248.3L1316.63 250.1C1318.83 248.1 1321.83 245.8 1325.63 243.2C1329.63 240.4 1334.43 237.9 1340.03 235.7C1345.63 233.5 1351.93 232.4 1358.93 232.4C1379.73 232.4 1394.63 239.3 1403.63 253.1C1407.23 248.1 1412.63 243.4 1419.83 239C1427.23 234.4 1437.43 232.1 1450.43 232.1C1468.43 232.1 1481.93 237.2 1490.93 247.4C1499.93 257.6 1504.43 271.9 1504.43 290.3V328.7L1510.73 358.7L1504.43 377H1450.43V298.1C1450.43 290.5 1448.73 284.7 1445.33 280.7C1442.13 276.5 1437.03 274.4 1430.03 274.4C1425.43 274.4 1421.43 276.1 1418.03 279.5C1414.63 282.9 1412.93 287.2 1412.93 292.4V377H1358.93V298.4C1358.93 290.8 1357.23 285 1353.83 281C1350.63 276.8 1345.53 274.7 1338.53 274.7L1319.93 280.4V377H1265.93V286.7L1259.93 253.7ZM1599.23 380C1584.63 380 1571.73 378.5 1560.53 375.5C1549.33 372.5 1540.63 369.4 1534.43 366.2V324.5C1542.63 328.1 1551.03 330.9 1559.63 332.9C1568.43 334.9 1576.33 336.3 1583.33 337.1C1590.33 337.7 1595.33 338 1598.33 338C1601.73 338 1604.13 337.5 1605.53 336.5C1606.93 335.3 1607.63 333.9 1607.63 332.3C1607.63 330.1 1605.83 328.3 1602.23 326.9C1598.63 325.3 1591.83 323.3 1581.83 320.9C1573.63 318.9 1565.63 316.4 1557.83 313.4C1550.23 310.2 1543.93 305.8 1538.93 300.2C1534.13 294.6 1531.73 287.1 1531.73 277.7C1531.73 266.1 1534.43 257 1539.83 250.4C1545.23 243.8 1552.93 239.2 1562.93 236.6C1572.93 233.8 1584.63 232.4 1598.03 232.4C1605.63 232.4 1612.73 232.8 1619.33 233.6C1625.93 234.4 1630.63 235 1633.43 235.4L1661.33 253.4L1647.83 285.5L1595.33 274.1C1588.93 274.1 1585.73 276.2 1585.73 280.4C1585.73 284.8 1590.33 288.1 1599.53 290.3C1606.73 291.9 1614.13 293.7 1621.73 295.7C1629.33 297.5 1636.23 299.9 1642.43 302.9C1648.83 305.9 1653.93 309.9 1657.73 314.9C1661.73 319.9 1663.73 326.5 1663.73 334.7C1663.73 349.9 1658.23 361.3 1647.23 368.9C1636.43 376.3 1620.43 380 1599.23 380Z" fill="white"/>
<path d="M100.9 411.1C99.6003 409.8 88.5003 394.3 104.2 347.1C107.7 336.7 112.2 325.7 117.8 314.2C129.4 328.4 142.1 342.5 155.8 356.1C169.5 369.7 183.5 382.5 197.7 394.1C186.3 399.7 175.3 404.3 164.9 407.7C117.7 423.4 102.2 412.3 100.9 411V411.1ZM153.7 256C167.2 237.7 183 219.2 201.1 201.1C219.2 183 237.7 167.2 256 153.7C274.3 167.2 292.8 183 310.9 201.1C329 219.2 344.8 237.7 358.3 256C344.8 274.3 329 292.8 310.9 310.9C292.8 329 274.3 344.8 256 358.3C237.7 344.8 219.2 329 201.1 310.9C183 292.8 167.2 274.3 153.7 256ZM197.8 117.9C183.6 129.5 169.5 142.2 155.9 155.9C142.3 169.6 129.5 183.6 117.9 197.8C112.3 186.4 107.7 175.4 104.3 165C88.6003 117.8 99.7003 102.3 101 101C102.3 99.6998 117.8 88.5998 165 104.3C175.4 107.8 186.4 112.3 197.8 117.9ZM256 76.7998C173.9 27.5998 94.9003 16.4998 55.7003 55.6998C16.5003 94.8998 27.6003 173.9 76.8003 256C27.6003 338.1 16.5003 417.1 55.7003 456.3C94.9003 495.5 173.9 484.4 256 435.2C338.1 484.4 417.1 495.5 456.3 456.3C495.5 417.1 484.4 338.1 435.2 256C484.4 173.9 495.5 94.8998 456.3 55.6998C417.1 16.4998 338.1 27.5998 256 76.7998ZM314.2 117.9C325.6 112.3 336.6 107.7 347.1 104.3C394.3 88.5998 409.8 99.6998 411.1 101C412.4 102.3 423.5 117.8 407.8 165C404.3 175.4 399.8 186.4 394.2 197.8C382.6 183.6 369.9 169.5 356.2 155.9C342.5 142.3 328.5 129.5 314.3 117.9H314.2ZM394.1 314.2C399.7 325.6 404.3 336.6 407.7 347.1C423.4 394.3 412.3 409.8 411 411.1C409.7 412.4 394.2 423.5 347 407.8C336.6 404.3 325.6 399.8 314.1 394.2C328.3 382.6 342.4 369.9 356 356.2C369.6 342.5 382.4 328.5 394 314.3L394.1 314.2ZM288 256C288 247.513 284.629 239.374 278.628 233.372C272.627 227.371 264.487 224 256 224C247.513 224 239.374 227.371 233.373 233.372C227.372 239.374 224 247.513 224 256C224 264.487 227.372 272.626 233.373 278.627C239.374 284.628 247.513 288 256 288C264.487 288 272.627 284.628 278.628 278.627C284.629 272.626 288 264.487 288 256Z" fill="white"/>
</svg>
