<svg width="3003" height="512" viewBox="0 0 3003 512" fill="none" xmlns="http://www.w3.org/2000/svg">
<path d="M0 336C0 415.5 64.5 480 144 480H512C582.7 480 640 422.7 640 352C640 290.1 596 238.4 537.6 226.6C541.7 215.9 544 204.2 544 192C544 139 501 96 448 96C428.3 96 409.9 102 394.7 112.2C367 64.2 315.3 32 256 32C167.6 32 96 103.6 96 192C96 194.7 96.1 197.4 96.2 200.1C40.2 219.8 0 273.2 0 336Z" fill="white"/>
<path d="M903.7 399C890.1 399 876.9 397.5 864.1 394.5C851.3 391.3 839.7 385.7 829.3 377.7C819.1 369.7 811 358.6 805 344.4C799 330.2 796 312 796 289.8C796 269.2 799 251.9 805 237.9C811 223.9 819 212.7 829 204.3C839 195.9 849.9 189.9 861.7 186.3C873.7 182.5 885.7 180.6 897.7 180.6C907.9 180.6 917.8 181.4 927.4 183C937.2 184.6 944.3 186.4 948.7 188.4L982 215.7L955 259.2L903.7 232.8C889.5 232.8 877.5 237.5 867.7 246.9C857.9 256.1 853 270.4 853 289.8C853 303.6 855.4 314.8 860.2 323.4C865.2 332 872 338.3 880.6 342.3C889.2 346.3 899 348.3 910 348.3C921.6 348.3 931.5 347.4 939.7 345.6C947.9 343.6 955.1 341.3 961.3 338.7C967.5 335.9 973.4 333.2 979 330.6V381C972 385.4 962.7 389.5 951.1 393.3C939.5 397.1 923.7 399 903.7 399ZM1010.6 396L1010.3 231.6L1004.3 201.6L1010.6 183.6H1064.6V396H1010.6ZM1166.84 399C1142.44 399 1123.54 393.2 1110.14 381.6C1096.74 370 1090.04 351.2 1090.04 325.2C1090.04 299 1096.74 280.2 1110.14 268.8C1123.54 257.2 1142.44 251.4 1166.84 251.4C1191.84 251.4 1210.74 257.2 1223.54 268.8C1236.54 280.2 1243.04 299 1243.04 325.2C1243.04 351.2 1236.54 370 1223.54 381.6C1210.74 393.2 1191.84 399 1166.84 399ZM1166.84 360C1175.04 360 1180.74 357 1183.94 351C1187.14 344.8 1188.74 336.2 1188.74 325.2C1188.74 314 1187.14 305.4 1183.94 299.4C1180.74 293.4 1175.04 290.4 1166.84 290.4C1158.44 290.4 1152.54 293.4 1149.14 299.4C1145.94 305.4 1144.34 314 1144.34 325.2C1144.34 336.2 1145.94 344.8 1149.14 351C1152.54 357 1158.44 360 1166.84 360ZM1307.41 399C1295.41 399 1286.11 396.7 1279.51 392.1C1273.11 387.5 1268.61 380.9 1266.01 372.3C1263.61 363.5 1262.41 353 1262.41 340.8V254.1H1316.41V333C1316.41 340.4 1317.81 346.2 1320.61 350.4C1323.61 354.6 1328.01 356.7 1333.81 356.7C1339.21 356.7 1344.11 354.4 1348.51 349.8C1353.11 345.2 1355.41 338.5 1355.41 329.7V254.1H1409.41V347.7L1415.71 377.7L1409.41 396H1358.71V381.3L1355.71 379.8C1353.11 382.4 1349.31 385.2 1344.31 388.2C1339.51 391.2 1333.91 393.8 1327.51 396C1321.31 398 1314.61 399 1307.41 399ZM1490.98 399C1481.58 399 1472.48 396.6 1463.68 391.8C1455.08 387 1447.98 379.4 1442.38 369C1436.78 358.6 1433.98 345 1433.98 328.2C1433.98 309.6 1436.68 294.7 1442.08 283.5C1447.68 272.3 1454.88 264.2 1463.68 259.2C1472.48 254 1481.58 251.4 1490.98 251.4C1505.18 251.4 1515.18 252.6 1520.98 255C1526.98 257.4 1529.98 258.6 1529.98 258.6L1526.98 201.9L1529.98 183.9H1584.28V348L1590.28 378L1584.28 396.3H1532.98V381.6L1529.98 380.1C1529.98 380.1 1528.48 381.7 1525.48 384.9C1522.48 387.9 1518.08 391 1512.28 394.2C1506.48 397.4 1499.38 399 1490.98 399ZM1513.48 356.7L1529.98 352.5V308.7C1529.98 304.1 1528.48 300.5 1525.48 297.9C1522.48 295.1 1518.48 293.7 1513.48 293.7C1506.08 293.7 1500.48 296.2 1496.68 301.2C1492.88 306 1490.98 314 1490.98 325.2C1490.98 336.2 1493.18 344.2 1497.58 349.2C1501.98 354.2 1507.28 356.7 1513.48 356.7ZM1695.26 399C1684.26 399 1673.86 398 1664.06 396C1654.26 393.8 1645.76 391.2 1638.56 388.2C1631.36 385.2 1626.06 382.4 1622.66 379.8V326.1C1632.26 331.5 1644.36 336.6 1658.96 341.4C1673.56 346 1689.76 348.3 1707.56 348.3C1714.76 348.3 1720.06 347.4 1723.46 345.6C1727.06 343.6 1728.86 340.2 1728.86 335.4C1728.86 330.2 1724.86 325.9 1716.86 322.5C1709.06 318.9 1696.66 314.5 1679.66 309.3C1666.46 305.1 1655.16 300.5 1645.76 295.5C1636.56 290.3 1629.46 283.9 1624.46 276.3C1619.66 268.5 1617.26 258.6 1617.26 246.6C1617.26 234.2 1620.46 223 1626.86 213C1633.26 203 1643.26 195.1 1656.86 189.3C1670.46 183.5 1687.86 180.6 1709.06 180.6C1715.46 180.6 1722.26 180.9 1729.46 181.5C1736.86 181.9 1742.76 182.5 1747.16 183.3L1781.06 208.2L1769.36 244.8L1698.26 225.3C1690.06 225.3 1683.96 227 1679.96 230.4C1676.16 233.8 1674.26 237.9 1674.26 242.7C1674.26 248.5 1677.56 253.1 1684.16 256.5C1690.76 259.9 1700.26 263.3 1712.66 266.7C1732.26 272.1 1747.46 278.1 1758.26 284.7C1769.06 291.3 1776.66 298.8 1781.06 307.2C1785.46 315.4 1787.66 324.7 1787.66 335.1C1787.66 354.3 1779.96 369.8 1764.56 381.6C1749.16 393.2 1726.06 399 1695.26 399ZM1869.62 399C1856.02 399 1845.12 395 1836.92 387C1828.72 379 1824.62 368.9 1824.62 356.7V291.3H1802.72V262.8L1821.62 248.1L1842.92 210.9H1878.32V254.4H1920.32V293.4H1878.32V357.6L1920.32 357.3V390C1920.32 390 1917.92 390.8 1913.12 392.4C1908.52 393.8 1902.42 395.2 1894.82 396.6C1887.22 398.2 1878.82 399 1869.62 399ZM1947.51 396V302.1L1941.21 272.1L1947.51 254.1H1988.31L1994.31 261C1994.31 261 1995.71 260.2 1998.51 258.6C2001.31 256.8 2005.21 255.1 2010.21 253.5C2015.41 251.9 2021.41 251.1 2028.21 251.1C2032.21 251.1 2036.21 251.4 2040.21 252C2044.21 252.6 2047.31 253.4 2049.51 254.4L2069.01 270.9L2049.51 309.3L2009.91 292.8L2000.91 295.8V396H1947.51ZM2113.96 245.7L2075.86 207.3L2113.96 169.2L2152.06 207.3L2113.96 245.7ZM2086.96 396V296.7L2080.66 272.7L2086.66 254.4H2140.96V396H2086.96ZM2174.86 396V231.6L2168.56 201.6L2174.86 183.6H2228.86V231.6L2225.56 309.3H2237.56L2260.66 254.4H2321.86V272.4L2288.56 321L2310.76 348L2338.96 378.3V396H2280.76L2246.86 346.5L2228.86 349.5V396H2174.86ZM2429.01 399C2413.61 399 2399.91 396.7 2387.91 392.1C2375.91 387.5 2366.51 379.8 2359.71 369C2352.91 358.2 2349.51 343.6 2349.51 325.2C2349.51 312 2351.71 300.7 2356.11 291.3C2360.71 281.9 2366.81 274.3 2374.41 268.5C2382.01 262.5 2390.51 258.2 2399.91 255.6C2409.31 252.8 2419.01 251.4 2429.01 251.4C2446.21 251.4 2459.41 253.1 2468.61 256.5C2478.01 259.9 2484.21 262.6 2487.21 264.6L2502.21 312.3L2496.21 330.9H2403.21C2404.61 338.3 2408.31 344.5 2414.31 349.5C2420.31 354.5 2430.21 357 2444.01 357C2454.81 357 2464.11 355.8 2471.91 353.4C2479.71 351 2485.81 348.9 2490.21 347.1V387.3C2484.21 390.5 2475.51 393.3 2464.11 395.7C2452.91 397.9 2441.21 399 2429.01 399ZM2403.51 311.7L2444.91 305.7L2442.21 292.8C2440.81 292 2438.71 291.4 2435.91 291C2433.31 290.6 2431.01 290.4 2429.01 290.4C2423.41 290.4 2418.71 291.6 2414.91 294C2411.31 296.4 2408.51 299.3 2406.51 302.7C2404.71 305.9 2403.71 308.9 2403.51 311.7Z" fill="white"/>
</svg>
