<svg width="2795" height="512" viewBox="0 0 2795 512" fill="none" xmlns="http://www.w3.org/2000/svg">
<path d="M600 410V246.2L594 215.6L600 197.6H748.5L763.5 206.6L743.7 248.6L716.7 245.6H651L654 278.6H734.7V325.1H698.4L654 322.1V362.3L657.3 392.3L654 410H600ZM837.316 413C821.916 413 808.216 410.7 796.216 406.1C784.216 401.5 774.816 393.8 768.016 383C761.216 372.2 757.816 357.6 757.816 339.2C757.816 326 760.016 314.7 764.416 305.3C769.016 295.9 775.116 288.3 782.716 282.5C790.316 276.5 798.816 272.2 808.216 269.6C817.616 266.8 827.316 265.4 837.316 265.4C854.516 265.4 867.716 267.1 876.916 270.5C886.316 273.9 892.516 276.6 895.516 278.6L910.516 326.3L904.516 344.9H811.516C812.916 352.3 816.616 358.5 822.616 363.5C828.616 368.5 838.516 371 852.316 371C863.116 371 872.416 369.8 880.216 367.4C888.016 365 894.116 362.9 898.516 361.1V401.3C892.516 404.5 883.816 407.3 872.416 409.7C861.216 411.9 849.516 413 837.316 413ZM811.816 325.7L853.216 319.7L850.516 306.8C849.116 306 847.016 305.4 844.216 305C841.616 304.6 839.316 304.4 837.316 304.4C831.716 304.4 827.016 305.6 823.216 308C819.616 310.4 816.816 313.3 814.816 316.7C813.016 319.9 812.016 322.9 811.816 325.7ZM974.602 413C966.002 413 958.002 411.8 950.602 409.4C943.402 406.8 937.602 402.4 933.202 396.2C928.802 390 926.602 381.4 926.602 370.4C926.602 360.4 929.102 352.1 934.102 345.5C939.102 338.9 945.902 334 954.502 330.8C963.102 327.6 972.802 326 983.602 326C994.002 326 1001.8 327.2 1007 329.6C1012.2 331.8 1016.7 334.1 1020.5 336.5L1022.6 334.7C1022.6 328.7 1022.1 323.7 1021.1 319.7C1020.1 315.7 1017.8 312.7 1014.2 310.7C1010.6 308.5 1005 307.4 997.402 307.4C990.002 307.4 982.102 308.1 973.702 309.5C965.502 310.7 957.902 312.3 950.902 314.3C944.102 316.1 939.002 317.9 935.602 319.7V274.7C941.802 272.5 950.602 270.5 962.002 268.7C973.602 266.7 987.802 265.7 1004.6 265.7C1022.6 265.7 1036.8 268 1047.2 272.6C1057.8 277 1065.4 283.5 1070 292.1C1074.6 300.5 1076.9 310.6 1076.9 322.4V362.3L1082.9 392.6L1076.9 410.3H1025.6V395.6L1022.6 394.1C1021 395.7 1018.2 398 1014.2 401C1010.2 404 1004.9 406.8 998.302 409.4C991.702 411.8 983.802 413 974.602 413ZM1000.1 373.7C1005.5 373.7 1010.1 373.2 1013.9 372.2C1017.9 371.2 1020.8 370.3 1022.6 369.5V363.8C1022.6 361.2 1020.7 358.7 1016.9 356.3C1013.3 353.9 1007.6 352.7 999.802 352.7C989.002 352.7 983.602 356.5 983.602 364.1C983.602 367.3 984.802 369.7 987.202 371.3C989.602 372.9 993.902 373.7 1000.1 373.7ZM1164.75 413C1151.15 413 1140.25 409 1132.05 401C1123.85 393 1119.75 382.9 1119.75 370.7V305.3H1097.85V276.8L1116.75 262.1L1138.05 224.9H1173.45V268.4H1215.45V307.4H1173.45V371.6L1215.45 371.3V404C1215.45 404 1213.05 404.8 1208.25 406.4C1203.65 407.8 1197.55 409.2 1189.95 410.6C1182.35 412.2 1173.95 413 1164.75 413ZM1242.34 410V245.6L1236.34 215.6L1242.34 197.6H1296.34V246.2L1293.34 279.5L1296.34 281C1298.74 277.4 1303.14 273.9 1309.54 270.5C1316.14 266.9 1324.74 265.1 1335.34 265.1C1353.34 265.1 1366.84 270.2 1375.84 280.4C1384.84 290.6 1389.34 304.9 1389.34 323.3V362.3L1395.64 391.7L1389.34 410H1335.34V331.1C1335.34 323.5 1333.64 317.7 1330.24 313.7C1327.04 309.5 1321.94 307.4 1314.94 307.4L1296.34 316.1V410H1242.34ZM1493.57 413C1478.17 413 1464.47 410.7 1452.47 406.1C1440.47 401.5 1431.07 393.8 1424.27 383C1417.47 372.2 1414.07 357.6 1414.07 339.2C1414.07 326 1416.27 314.7 1420.67 305.3C1425.27 295.9 1431.37 288.3 1438.97 282.5C1446.57 276.5 1455.07 272.2 1464.47 269.6C1473.87 266.8 1483.57 265.4 1493.57 265.4C1510.77 265.4 1523.97 267.1 1533.17 270.5C1542.57 273.9 1548.77 276.6 1551.77 278.6L1566.77 326.3L1560.77 344.9H1467.77C1469.17 352.3 1472.87 358.5 1478.87 363.5C1484.87 368.5 1494.77 371 1508.57 371C1519.37 371 1528.67 369.8 1536.47 367.4C1544.27 365 1550.37 362.9 1554.77 361.1V401.3C1548.77 404.5 1540.07 407.3 1528.67 409.7C1517.47 411.9 1505.77 413 1493.57 413ZM1468.07 325.7L1509.47 319.7L1506.77 306.8C1505.37 306 1503.27 305.4 1500.47 305C1497.87 304.6 1495.57 304.4 1493.57 304.4C1487.97 304.4 1483.27 305.6 1479.47 308C1475.87 310.4 1473.07 313.3 1471.07 316.7C1469.27 319.9 1468.27 322.9 1468.07 325.7ZM1592.15 410V316.1L1585.85 286.1L1592.15 268.1H1632.95L1638.95 275C1638.95 275 1640.35 274.2 1643.15 272.6C1645.95 270.8 1649.85 269.1 1654.85 267.5C1660.05 265.9 1666.05 265.1 1672.85 265.1C1676.85 265.1 1680.85 265.4 1684.85 266C1688.85 266.6 1691.95 267.4 1694.15 268.4L1713.65 284.9L1694.15 323.3L1654.55 306.8L1645.55 309.8V410H1592.15ZM1791.52 413C1776.12 413 1762.42 410.7 1750.42 406.1C1738.42 401.5 1729.02 393.8 1722.22 383C1715.42 372.2 1712.02 357.6 1712.02 339.2C1712.02 326 1714.22 314.7 1718.62 305.3C1723.22 295.9 1729.32 288.3 1736.92 282.5C1744.52 276.5 1753.02 272.2 1762.42 269.6C1771.82 266.8 1781.52 265.4 1791.52 265.4C1808.72 265.4 1821.92 267.1 1831.12 270.5C1840.52 273.9 1846.72 276.6 1849.72 278.6L1864.72 326.3L1858.72 344.9H1765.72C1767.12 352.3 1770.82 358.5 1776.82 363.5C1782.82 368.5 1792.72 371 1806.52 371C1817.32 371 1826.62 369.8 1834.42 367.4C1842.22 365 1848.32 362.9 1852.72 361.1V401.3C1846.72 404.5 1838.02 407.3 1826.62 409.7C1815.42 411.9 1803.72 413 1791.52 413ZM1766.02 325.7L1807.42 319.7L1804.72 306.8C1803.32 306 1801.22 305.4 1798.42 305C1795.82 304.6 1793.52 304.4 1791.52 304.4C1785.92 304.4 1781.22 305.6 1777.42 308C1773.82 310.4 1771.02 313.3 1769.02 316.7C1767.22 319.9 1766.22 322.9 1766.02 325.7ZM1936.3 413C1926.9 413 1917.8 410.6 1909 405.8C1900.4 401 1893.3 393.4 1887.7 383C1882.1 372.6 1879.3 359 1879.3 342.2C1879.3 323.6 1882 308.7 1887.4 297.5C1893 286.3 1900.2 278.2 1909 273.2C1917.8 268 1926.9 265.4 1936.3 265.4C1950.5 265.4 1960.5 266.6 1966.3 269C1972.3 271.4 1975.3 272.6 1975.3 272.6L1972.3 215.9L1975.3 197.9H2029.6V362L2035.6 392L2029.6 410.3H1978.3V395.6L1975.3 394.1C1975.3 394.1 1973.8 395.7 1970.8 398.9C1967.8 401.9 1963.4 405 1957.6 408.2C1951.8 411.4 1944.7 413 1936.3 413ZM1958.8 370.7L1975.3 366.5V322.7C1975.3 318.1 1973.8 314.5 1970.8 311.9C1967.8 309.1 1963.8 307.7 1958.8 307.7C1951.4 307.7 1945.8 310.2 1942 315.2C1938.2 320 1936.3 328 1936.3 339.2C1936.3 350.2 1938.5 358.2 1942.9 363.2C1947.3 368.2 1952.6 370.7 1958.8 370.7Z" fill="white"/>
<path d="M278.499 215.6L22.9992 471C13.5992 480.4 13.5992 495.6 22.9992 504.9C32.3992 514.2 47.5992 514.3 56.8992 504.9L113.899 447.9H181.899C231.599 447.9 279.799 433.5 320.899 406.9C331.999 399.7 326.399 383.9 313.099 383.9C307.999 383.9 303.899 379.8 303.899 374.7C303.899 370.6 306.599 367.1 310.399 365.9L391.399 341.6C393.899 340.8 396.199 339.5 398.099 337.6L420.499 315.2C430.599 305.1 423.399 287.9 409.199 287.9H376.999C371.899 287.9 367.799 283.8 367.799 278.7C367.799 274.6 370.499 271.1 374.299 269.9L486.299 236.3C490.299 235.1 493.699 232.4 495.599 228.6C506.399 207.6 511.999 184.1 511.999 160C511.999 119 495.699 79.7 466.699 50.7L461.199 45.2C432.299 16.3 392.999 0 351.999 0C310.999 0 271.699 16.3 242.699 45.3L138.999 149C90.9992 197 63.9992 262.1 63.9992 330V385.3L253.599 195.8C259.799 189.6 269.999 189.6 276.199 195.8C281.599 201.2 282.299 209.4 278.399 215.6H278.499Z" fill="white"/>
</svg>
