<svg width="2862" height="512" viewBox="0 0 2862 512" fill="none" xmlns="http://www.w3.org/2000/svg">
<path d="M706 377L658 212.3L649 182.6V164.6H706L743.5 319.4H749.5L778 164.6H856.9L880.3 281.3L885.1 319.4H891.1L928.3 164.6H984.7V182.6L975.7 212.3L928.3 377H850.6L819.7 220.4H813.4L808.3 256.7L783.7 377H706ZM1057.18 380C1032.78 380 1013.88 374.2 1000.48 362.6C987.083 351 980.383 332.2 980.383 306.2C980.383 280 987.083 261.2 1000.48 249.8C1013.88 238.2 1032.78 232.4 1057.18 232.4C1082.18 232.4 1101.08 238.2 1113.88 249.8C1126.88 261.2 1133.38 280 1133.38 306.2C1133.38 332.2 1126.88 351 1113.88 362.6C1101.08 374.2 1082.18 380 1057.18 380ZM1057.18 341C1065.38 341 1071.08 338 1074.28 332C1077.48 325.8 1079.08 317.2 1079.08 306.2C1079.08 295 1077.48 286.4 1074.28 280.4C1071.08 274.4 1065.38 271.4 1057.18 271.4C1048.78 271.4 1042.88 274.4 1039.48 280.4C1036.28 286.4 1034.68 295 1034.68 306.2C1034.68 317.2 1036.28 325.8 1039.48 332C1042.88 338 1048.78 341 1057.18 341ZM1159.05 377V283.1L1152.75 253.1L1159.05 235.1H1199.85L1205.85 242C1205.85 242 1207.25 241.2 1210.05 239.6C1212.85 237.8 1216.75 236.1 1221.75 234.5C1226.95 232.9 1232.95 232.1 1239.75 232.1C1243.75 232.1 1247.75 232.4 1251.75 233C1255.75 233.6 1258.85 234.4 1261.05 235.4L1280.55 251.9L1261.05 290.3L1221.45 273.8L1212.45 276.8V377H1159.05ZM1298.8 377L1298.5 212.6L1292.5 182.6L1298.8 164.6H1352.8V377H1298.8ZM1435.23 380C1425.83 380 1416.73 377.6 1407.93 372.8C1399.33 368 1392.23 360.4 1386.63 350C1381.03 339.6 1378.23 326 1378.23 309.2C1378.23 290.6 1380.93 275.7 1386.33 264.5C1391.93 253.3 1399.13 245.2 1407.93 240.2C1416.73 235 1425.83 232.4 1435.23 232.4C1449.43 232.4 1459.43 233.6 1465.23 236C1471.23 238.4 1474.23 239.6 1474.23 239.6L1471.23 182.9L1474.23 164.9H1528.53V329L1534.53 359L1528.53 377.3H1477.23V362.6L1474.23 361.1C1474.23 361.1 1472.73 362.7 1469.73 365.9C1466.73 368.9 1462.33 372 1456.53 375.2C1450.73 378.4 1443.63 380 1435.23 380ZM1457.73 337.7L1474.23 333.5V289.7C1474.23 285.1 1472.73 281.5 1469.73 278.9C1466.73 276.1 1462.73 274.7 1457.73 274.7C1450.33 274.7 1444.73 277.2 1440.93 282.2C1437.13 287 1435.23 295 1435.23 306.2C1435.23 317.2 1437.43 325.2 1441.83 330.2C1446.23 335.2 1451.53 337.7 1457.73 337.7ZM1666.22 380C1652.62 380 1639.42 378.5 1626.62 375.5C1613.82 372.3 1602.22 366.7 1591.82 358.7C1581.62 350.7 1573.52 339.6 1567.52 325.4C1561.52 311.2 1558.52 293 1558.52 270.8C1558.52 250.2 1561.52 232.9 1567.52 218.9C1573.52 204.9 1581.52 193.7 1591.52 185.3C1601.52 176.9 1612.42 170.9 1624.22 167.3C1636.22 163.5 1648.22 161.6 1660.22 161.6C1670.42 161.6 1680.32 162.4 1689.92 164C1699.72 165.6 1706.82 167.4 1711.22 169.4L1744.52 196.7L1717.52 240.2L1666.22 213.8C1652.02 213.8 1640.02 218.5 1630.22 227.9C1620.42 237.1 1615.52 251.4 1615.52 270.8C1615.52 284.6 1617.92 295.8 1622.72 304.4C1627.72 313 1634.52 319.3 1643.12 323.3C1651.72 327.3 1661.52 329.3 1672.52 329.3C1684.12 329.3 1694.02 328.4 1702.22 326.6C1710.42 324.6 1717.62 322.3 1723.82 319.7C1730.02 316.9 1735.92 314.2 1741.52 311.6V362C1734.52 366.4 1725.22 370.5 1713.62 374.3C1702.02 378.1 1686.22 380 1666.22 380ZM1839.12 380C1814.72 380 1795.82 374.2 1782.42 362.6C1769.02 351 1762.32 332.2 1762.32 306.2C1762.32 280 1769.02 261.2 1782.42 249.8C1795.82 238.2 1814.72 232.4 1839.12 232.4C1864.12 232.4 1883.02 238.2 1895.82 249.8C1908.82 261.2 1915.32 280 1915.32 306.2C1915.32 332.2 1908.82 351 1895.82 362.6C1883.02 374.2 1864.12 380 1839.12 380ZM1839.12 341C1847.32 341 1853.02 338 1856.22 332C1859.42 325.8 1861.02 317.2 1861.02 306.2C1861.02 295 1859.42 286.4 1856.22 280.4C1853.02 274.4 1847.32 271.4 1839.12 271.4C1830.72 271.4 1824.82 274.4 1821.42 280.4C1818.22 286.4 1816.62 295 1816.62 306.2C1816.62 317.2 1818.22 325.8 1821.42 332C1824.82 338 1830.72 341 1839.12 341ZM1987.19 380C1977.79 380 1968.69 377.6 1959.89 372.8C1951.29 368 1944.19 360.4 1938.59 350C1932.99 339.6 1930.19 326 1930.19 309.2C1930.19 290.6 1932.89 275.7 1938.29 264.5C1943.89 253.3 1951.09 245.2 1959.89 240.2C1968.69 235 1977.79 232.4 1987.19 232.4C2001.39 232.4 2011.39 233.6 2017.19 236C2023.19 238.4 2026.19 239.6 2026.19 239.6L2023.19 182.9L2026.19 164.9H2080.49V329L2086.49 359L2080.49 377.3H2029.19V362.6L2026.19 361.1C2026.19 361.1 2024.69 362.7 2021.69 365.9C2018.69 368.9 2014.29 372 2008.49 375.2C2002.69 378.4 1995.59 380 1987.19 380ZM2009.69 337.7L2026.19 333.5V289.7C2026.19 285.1 2024.69 281.5 2021.69 278.9C2018.69 276.1 2014.69 274.7 2009.69 274.7C2002.29 274.7 1996.69 277.2 1992.89 282.2C1989.09 287 1987.19 295 1987.19 306.2C1987.19 317.2 1989.39 325.2 1993.79 330.2C1998.19 335.2 2003.49 337.7 2009.69 337.7ZM2185.47 380C2170.07 380 2156.37 377.7 2144.37 373.1C2132.37 368.5 2122.97 360.8 2116.17 350C2109.37 339.2 2105.97 324.6 2105.97 306.2C2105.97 293 2108.17 281.7 2112.57 272.3C2117.17 262.9 2123.27 255.3 2130.87 249.5C2138.47 243.5 2146.97 239.2 2156.37 236.6C2165.77 233.8 2175.47 232.4 2185.47 232.4C2202.67 232.4 2215.87 234.1 2225.07 237.5C2234.47 240.9 2240.67 243.6 2243.67 245.6L2258.67 293.3L2252.67 311.9H2159.67C2161.07 319.3 2164.77 325.5 2170.77 330.5C2176.77 335.5 2186.67 338 2200.47 338C2211.27 338 2220.57 336.8 2228.37 334.4C2236.17 332 2242.27 329.9 2246.67 328.1V368.3C2240.67 371.5 2231.97 374.3 2220.57 376.7C2209.37 378.9 2197.67 380 2185.47 380ZM2159.97 292.7L2201.37 286.7L2198.67 273.8C2197.27 273 2195.17 272.4 2192.37 272C2189.77 271.6 2187.47 271.4 2185.47 271.4C2179.87 271.4 2175.17 272.6 2171.37 275C2167.77 277.4 2164.97 280.3 2162.97 283.7C2161.17 286.9 2160.17 289.9 2159.97 292.7Z" fill="white"/>
<g clip-path="url(#clip0_147_3223)">
<path d="M57.7 193L67.1 209.4C75.4 223.9 89 234.6 105.1 239.2L163 255.7C180.2 260.6 192 276.3 192 294.2V334.1C192 345.1 198.2 355.1 208 360C217.8 364.9 224 374.9 224 385.9V424.9C224 440.5 238.9 451.8 253.9 447.5C270 442.9 282.5 430 286.6 413.7L289.4 402.5C293.6 385.6 304.6 371.1 319.7 362.5L327.8 357.9C342.8 349.4 352 333.4 352 316.2V307.9C352 295.2 346.9 283 337.9 274L334 270.1C325 261.1 312.8 256 300.1 256H257C245.9 256 234.9 253.1 225.2 247.6L190.7 227.9C186.4 225.4 183.1 221.4 181.5 216.7C178.3 207.1 182.6 196.7 191.7 192.2L197.6 189.2C204.2 185.9 211.9 185.3 218.9 187.7L242.1 195.4C250.3 198.1 259.3 195 264 187.9C268.7 180.9 268.2 171.6 262.8 165.1L249.2 148.8C239.2 136.8 239.3 119.3 249.5 107.5L265.2 89.2C274 78.9 275.4 64.2 268.7 52.5L266.3 48.3C262.8 48.1 259.4 48 255.9 48C163.1 48 84.4 108.9 57.7 193ZM464 256C464 219.2 454.4 184.6 437.6 154.5L412 164.8C396.3 171.1 388.2 188.6 393.5 204.6L410.4 255.3C413.9 265.7 422.4 273.6 433 276.2L462.1 283.5C463.3 274.5 463.9 265.3 463.9 256H464ZM0 256C0 188.105 26.9714 122.99 74.9807 74.9807C122.99 26.9714 188.105 0 256 0C323.895 0 389.01 26.9714 437.019 74.9807C485.029 122.99 512 188.105 512 256C512 323.895 485.029 389.01 437.019 437.019C389.01 485.029 323.895 512 256 512C188.105 512 122.99 485.029 74.9807 437.019C26.9714 389.01 0 323.895 0 256Z" fill="white"/>
</g>
<defs>
<clipPath id="clip0_147_3223">
<rect width="512" height="512" fill="white"/>
</clipPath>
</defs>
</svg>
