<svg width="1129" height="224" viewBox="0 0 1129 224" fill="none" xmlns="http://www.w3.org/2000/svg">
<path d="M231.375 129.141C228.458 129.141 227 127.579 227 124.454V44.2037C227 41.0787 228.458 39.5162 231.375 39.5162H240.875C243.792 39.5162 245.25 41.0787 245.25 44.2037V124.454C245.25 127.579 243.792 129.141 240.875 129.141H231.375ZM267.5 129.141C265 129.141 263.75 127.891 263.75 125.391V67.2662C263.75 64.7662 265 63.5162 267.5 63.5162H277.375C279.875 63.5162 281.125 64.7662 281.125 67.2662V70.8912H281.375C283.292 67.5996 285.729 65.3496 288.688 64.1412C291.646 62.8912 295.208 62.2662 299.375 62.2662C305.875 62.2662 311.25 64.3079 315.5 68.3912C319.75 72.4746 321.875 79.9329 321.875 90.7662V125.391C321.875 127.891 320.625 129.141 318.125 129.141H308.125C305.625 129.141 304.375 127.891 304.375 125.391V95.2662C304.375 86.1829 303.75 80.4537 302.5 78.0787C301.25 75.7037 298.562 74.5162 294.438 74.5162C290.062 74.5162 286.771 76.2246 284.562 79.6412C282.354 83.0162 281.25 90.0579 281.25 100.766V125.391C281.25 127.891 280 129.141 277.5 129.141H267.5ZM342.5 129.141C340 129.141 338.75 127.891 338.75 125.391V67.2662C338.75 64.7662 340 63.5162 342.5 63.5162H352.375C354.875 63.5162 356.125 64.7662 356.125 67.2662V70.8912H356.375C358.292 67.5996 360.729 65.3496 363.688 64.1412C366.646 62.8912 370.208 62.2662 374.375 62.2662C380.875 62.2662 386.25 64.3079 390.5 68.3912C394.75 72.4746 396.875 79.9329 396.875 90.7662V125.391C396.875 127.891 395.625 129.141 393.125 129.141H383.125C380.625 129.141 379.375 127.891 379.375 125.391V95.2662C379.375 86.1829 378.75 80.4537 377.5 78.0787C376.25 75.7037 373.562 74.5162 369.438 74.5162C365.062 74.5162 361.771 76.2246 359.562 79.6412C357.354 83.0162 356.25 90.0579 356.25 100.766V125.391C356.25 127.891 355 129.141 352.5 129.141H342.5ZM410.25 96.3287C410.25 85.7037 412.979 77.3704 418.438 71.3287C423.938 65.2871 432.104 62.2662 442.938 62.2662C453.771 62.2662 461.917 65.2871 467.375 71.3287C472.875 77.3704 475.625 85.7037 475.625 96.3287C475.625 106.954 472.875 115.287 467.375 121.329C461.917 127.37 453.771 130.391 442.938 130.391C432.104 130.391 423.938 127.37 418.438 121.329C412.979 115.287 410.25 106.954 410.25 96.3287ZM428.75 96.3287C428.75 104.245 429.958 109.87 432.375 113.204C434.833 116.495 438.354 118.141 442.938 118.141C447.521 118.141 451.021 116.495 453.438 113.204C455.896 109.87 457.125 104.245 457.125 96.3287C457.125 88.4121 455.896 82.8079 453.438 79.5162C451.021 76.1829 447.521 74.5162 442.938 74.5162C438.354 74.5162 434.833 76.1829 432.375 79.5162C429.958 82.8079 428.75 88.4121 428.75 96.3287ZM484.812 68.3912C483.771 65.1412 484.458 63.5162 486.875 63.5162H498.062C500.021 63.5162 501.271 64.5787 501.812 66.7037L511.5 103.329C512.042 105.37 512.479 107.391 512.812 109.391C513.188 111.391 513.417 113.016 513.5 114.266H513.875C513.958 113.016 514.167 111.391 514.5 109.391C514.875 107.391 515.333 105.37 515.875 103.329L525.562 66.7037C526.104 64.5787 527.354 63.5162 529.312 63.5162H540.5C542.917 63.5162 543.604 65.1412 542.562 68.3912L524.438 124.954C523.562 127.745 522.042 129.141 519.875 129.141H507.5C505.333 129.141 503.812 127.745 502.938 124.954L484.812 68.3912Z" fill="white"/>
<path d="M543.125 129.141C541 129.141 540.75 127.766 542.375 125.016L590.5 43.3287C592 40.7871 593.667 39.5162 595.5 39.5162H604.25C605.958 39.5162 607.042 40.7871 607.5 43.3287L621.625 125.016C622.083 127.766 621.208 129.141 619 129.141H613.312C611.104 129.141 609.833 128.12 609.5 126.079L605.938 105.391H567.5L555.312 126.079C554.104 128.12 552.375 129.141 550.125 129.141H543.125ZM573.625 95.1412H604.125L599.75 70.1412C599.208 67.1412 598.771 63.8704 598.438 60.3287C598.104 56.7454 597.938 53.4121 597.938 50.3287H597.688C596.938 53.2871 595.771 56.3079 594.188 59.3912C592.604 62.4746 590.625 66.0579 588.25 70.1412L573.625 95.1412ZM627.688 154.141C625.812 154.141 625.083 153.204 625.5 151.329L645.125 66.3287C645.542 64.4537 646.688 63.5162 648.562 63.5162H653.812C655.354 63.5162 655.958 64.4537 655.625 66.3287L654.25 73.8287H654.375C656.208 70.5371 659.062 67.8287 662.938 65.7037C666.812 63.5371 670.417 62.4537 673.75 62.4537C681.667 62.4537 687.167 64.8912 690.25 69.7662C693.375 74.5996 694.938 80.4121 694.938 87.2037C694.938 97.8287 691.583 107.662 684.875 116.704C678.167 125.704 670.271 130.204 661.188 130.204C656.562 130.204 652.958 129.516 650.375 128.141C647.792 126.725 645.438 124.6 643.312 121.766H643.188C643.021 122.933 642.771 124.204 642.438 125.579L636.5 151.329C636.083 153.204 634.938 154.141 633.062 154.141H627.688ZM645.812 111.016C646.229 115.183 647.583 118.079 649.875 119.704C652.167 121.287 655.646 122.079 660.312 122.079C666.646 122.079 672.062 118.558 676.562 111.516C681.062 104.433 683.312 96.1829 683.312 86.7662C683.312 82.4329 682.375 78.6621 680.5 75.4537C678.625 72.2037 675.333 70.5787 670.625 70.5787C666.542 70.5787 662.375 73.0371 658.125 77.9537C653.917 82.8287 651.167 88.0162 649.875 93.5162L645.812 111.016ZM702.875 104.391C702.875 91.8912 706.125 81.7871 712.625 74.0787C719.167 66.3287 728.083 62.4537 739.375 62.4537C745.833 62.4537 751.042 64.3079 755 68.0162C759 71.6829 761 75.8496 761 80.5162C761 86.6829 758.042 91.2246 752.125 94.1412C746.25 97.0579 738.958 99.3912 730.25 101.141L714.875 104.204C714.625 105.787 714.5 106.62 714.5 106.704C714.5 110.829 715.625 114.412 717.875 117.454C720.125 120.495 724.062 122.016 729.688 122.016C734.479 122.016 738.333 121.141 741.25 119.391C744.167 117.641 746.146 116.058 747.188 114.641C748.646 112.683 749.958 112.245 751.125 113.329L754.812 116.516C755.604 117.225 755.479 118.391 754.438 120.016C753.479 121.516 750.896 123.6 746.688 126.266C742.479 128.891 736.312 130.204 728.188 130.204C719.312 130.204 712.875 127.641 708.875 122.516C704.875 117.35 702.875 111.308 702.875 104.391ZM715.188 95.5162L728 93.0162C733.833 91.8912 738.958 90.3496 743.375 88.3912C747.792 86.3912 750 83.5996 750 80.0162C750 77.1829 748.708 74.9121 746.125 73.2037C743.583 71.4537 740.646 70.5787 737.312 70.5787C732.271 70.5787 727.771 72.4954 723.812 76.3287C719.896 80.1621 717.021 86.5579 715.188 95.5162ZM766.562 129.141C763.854 129.141 763.604 127.912 765.812 125.454L794.062 93.8287L782 67.2037C780.875 64.7454 781.688 63.5162 784.438 63.5162H789.062C790.562 63.5162 791.542 64.0579 792 65.1412L801.25 86.8912L819.188 65.1412C820.062 64.0579 821.292 63.5162 822.875 63.5162H829.688C832.438 63.5162 832.708 64.7454 830.5 67.2037L805.5 95.2662L819.312 125.454C820.438 127.912 819.604 129.141 816.812 129.141H811.938C810.438 129.141 809.458 128.6 809 127.516L798.375 102.204L777.25 127.516C776.333 128.6 775.104 129.141 773.562 129.141H766.562Z" fill="#CACD38"/>
<g clip-path="url(#clip0_5_10)">
<path d="M0 83.9529C0 51.8075 18.8964 23.8817 46.6483 9.77581V25.5157C46.6483 27.2185 45.775 28.8049 44.363 29.8428C27.3981 42.3127 16.4641 61.912 16.4641 83.9529C16.4641 86.1654 16.5743 88.3531 16.7897 90.5116L49.3925 90.5117C66.0627 90.5118 79.5766 103.432 79.5766 119.371V139.586C73.7737 138.808 68.2426 137.22 63.1125 134.945V119.371C63.1125 112.126 56.9698 106.253 49.3924 106.253L3.13143 106.253C1.09019 99.1517 0 91.6741 0 83.9529Z" fill="#CACD38"/>
<path d="M63.1124 3.36601C70.9464 1.17508 79.234 0 87.8086 0C121.43 0 150.639 18.0667 165.392 44.6H148.93C147.149 44.6 145.489 43.765 144.404 42.415C131.361 26.195 110.862 15.7412 87.8086 15.7412C85.0245 15.7412 82.2776 15.8937 79.5766 16.1903V47.8795C79.5766 63.8177 66.0627 76.7382 49.3925 76.7383L29.5288 76.7384C30.2716 71.1983 31.8585 65.9107 34.1621 60.9972L49.3924 60.9971C56.9698 60.9971 63.1125 55.1241 63.1125 47.8795L63.1124 3.36601Z" fill="#CACD38"/>
<path d="M172.097 60.9972C174.388 68.4872 175.617 75.7548 175.617 83.9529C175.617 117.147 155.468 145.842 126.225 159.466V144.313C126.225 142.524 127.187 140.87 128.719 139.843C147.122 127.507 159.153 107.073 159.153 83.9529C159.153 81.5161 159.019 79.1092 158.759 76.7384L123.481 76.7383C106.811 76.7382 93.2967 63.8177 93.2967 47.8795V28.015C99.0673 28.526 104.596 29.8348 109.761 31.8249V47.8795C109.761 55.1241 115.903 60.9971 123.481 60.9971L172.097 60.9972Z" fill="#CACD38"/>
<path d="M109.761 165.261C102.744 166.988 95.3887 167.906 87.8086 167.906C53.6356 167.906 24.022 149.242 9.51085 121.994H25.659C27.4853 121.994 29.1802 122.871 30.261 124.279C43.2453 141.188 64.1863 152.165 87.8086 152.165C89.6552 152.165 91.4854 152.098 93.2967 151.966V119.371C93.2967 103.432 106.811 90.5118 123.481 90.5117L146.172 90.5116C145.5 96.0439 143.986 101.331 141.757 106.253L123.481 106.253C115.903 106.253 109.761 112.126 109.761 119.371L109.761 165.261Z" fill="#CACD38"/>
</g>
<defs>
<clipPath id="clip0_5_10">
<rect width="175.617" height="167.906" fill="white"/>
</clipPath>
</defs>
</svg>
