<svg width="3266" height="510" viewBox="0 0 3266 510" fill="none" xmlns="http://www.w3.org/2000/svg">
<path d="M653 380C642 380 631.6 379 621.8 377C612 374.8 603.5 372.2 596.3 369.2C589.1 366.2 583.8 363.4 580.4 360.8V307.1C590 312.5 602.1 317.6 616.7 322.4C631.3 327 647.5 329.3 665.3 329.3C672.5 329.3 677.8 328.4 681.2 326.6C684.8 324.6 686.6 321.2 686.6 316.4C686.6 311.2 682.6 306.9 674.6 303.5C666.8 299.9 654.4 295.5 637.4 290.3C624.2 286.1 612.9 281.5 603.5 276.5C594.3 271.3 587.2 264.9 582.2 257.3C577.4 249.5 575 239.6 575 227.6C575 215.2 578.2 204 584.6 194C591 184 601 176.1 614.6 170.3C628.2 164.5 645.6 161.6 666.8 161.6C673.2 161.6 680 161.9 687.2 162.5C694.6 162.9 700.5 163.5 704.9 164.3L738.8 189.2L727.1 225.8L656 206.3C647.8 206.3 641.7 208 637.7 211.4C633.9 214.8 632 218.9 632 223.7C632 229.5 635.3 234.1 641.9 237.5C648.5 240.9 658 244.3 670.4 247.7C690 253.1 705.2 259.1 716 265.7C726.8 272.3 734.4 279.8 738.8 288.2C743.2 296.4 745.4 305.7 745.4 316.1C745.4 335.3 737.7 350.8 722.3 362.6C706.9 374.2 683.8 380 653 380ZM775.461 377V212.6L769.461 182.6L775.461 164.6H829.461V213.2L826.461 246.5L829.461 248C831.861 244.4 836.261 240.9 842.661 237.5C849.261 233.9 857.861 232.1 868.461 232.1C886.461 232.1 899.961 237.2 908.961 247.4C917.961 257.6 922.461 271.9 922.461 290.3V329.3L928.761 358.7L922.461 377H868.461V298.1C868.461 290.5 866.761 284.7 863.361 280.7C860.161 276.5 855.061 274.4 848.061 274.4L829.461 283.1V377H775.461ZM984.688 226.7L946.588 188.3L984.688 150.2L1022.79 188.3L984.688 226.7ZM957.688 377V277.7L951.388 253.7L957.388 235.4H1011.69V377H957.688ZM1114.29 380C1098.89 380 1085.19 377.7 1073.19 373.1C1061.19 368.5 1051.79 360.8 1044.99 350C1038.19 339.2 1034.79 324.6 1034.79 306.2C1034.79 293 1036.99 281.7 1041.39 272.3C1045.99 262.9 1052.09 255.3 1059.69 249.5C1067.29 243.5 1075.79 239.2 1085.19 236.6C1094.59 233.8 1104.29 232.4 1114.29 232.4C1131.49 232.4 1144.69 234.1 1153.89 237.5C1163.29 240.9 1169.49 243.6 1172.49 245.6L1187.49 293.3L1181.49 311.9H1088.49C1089.89 319.3 1093.59 325.5 1099.59 330.5C1105.59 335.5 1115.49 338 1129.29 338C1140.09 338 1149.39 336.8 1157.19 334.4C1164.99 332 1171.09 329.9 1175.49 328.1V368.3C1169.49 371.5 1160.79 374.3 1149.39 376.7C1138.19 378.9 1126.49 380 1114.29 380ZM1088.79 292.7L1130.19 286.7L1127.49 273.8C1126.09 273 1123.99 272.4 1121.19 272C1118.59 271.6 1116.29 271.4 1114.29 271.4C1108.69 271.4 1103.99 272.6 1100.19 275C1096.59 277.4 1093.79 280.3 1091.79 283.7C1089.99 286.9 1088.99 289.9 1088.79 292.7ZM1212.87 377L1212.57 212.6L1206.57 182.6L1212.87 164.6H1266.87V377H1212.87ZM1349.3 380C1339.9 380 1330.8 377.6 1322 372.8C1313.4 368 1306.3 360.4 1300.7 350C1295.1 339.6 1292.3 326 1292.3 309.2C1292.3 290.6 1295 275.7 1300.4 264.5C1306 253.3 1313.2 245.2 1322 240.2C1330.8 235 1339.9 232.4 1349.3 232.4C1363.5 232.4 1373.5 233.6 1379.3 236C1385.3 238.4 1388.3 239.6 1388.3 239.6L1385.3 182.9L1388.3 164.9H1442.6V329L1448.6 359L1442.6 377.3H1391.3V362.6L1388.3 361.1C1388.3 361.1 1386.8 362.7 1383.8 365.9C1380.8 368.9 1376.4 372 1370.6 375.2C1364.8 378.4 1357.7 380 1349.3 380ZM1371.8 337.7L1388.3 333.5V289.7C1388.3 285.1 1386.8 281.5 1383.8 278.9C1380.8 276.1 1376.8 274.7 1371.8 274.7C1364.4 274.7 1358.8 277.2 1355 282.2C1351.2 287 1349.3 295 1349.3 306.2C1349.3 317.2 1351.5 325.2 1355.9 330.2C1360.3 335.2 1365.6 337.7 1371.8 337.7ZM1580.29 380C1566.69 380 1553.49 378.5 1540.69 375.5C1527.89 372.3 1516.29 366.7 1505.89 358.7C1495.69 350.7 1487.59 339.6 1481.59 325.4C1475.59 311.2 1472.59 293 1472.59 270.8C1472.59 250.2 1475.59 232.9 1481.59 218.9C1487.59 204.9 1495.59 193.7 1505.59 185.3C1515.59 176.9 1526.49 170.9 1538.29 167.3C1550.29 163.5 1562.29 161.6 1574.29 161.6C1584.49 161.6 1594.39 162.4 1603.99 164C1613.79 165.6 1620.89 167.4 1625.29 169.4L1658.59 196.7L1631.59 240.2L1580.29 213.8C1566.09 213.8 1554.09 218.5 1544.29 227.9C1534.49 237.1 1529.59 251.4 1529.59 270.8C1529.59 284.6 1531.99 295.8 1536.79 304.4C1541.79 313 1548.59 319.3 1557.19 323.3C1565.79 327.3 1575.59 329.3 1586.59 329.3C1598.19 329.3 1608.09 328.4 1616.29 326.6C1624.49 324.6 1631.69 322.3 1637.89 319.7C1644.09 316.9 1649.99 314.2 1655.59 311.6V362C1648.59 366.4 1639.29 370.5 1627.69 374.3C1616.09 378.1 1600.29 380 1580.29 380ZM1753.19 380C1728.79 380 1709.89 374.2 1696.49 362.6C1683.09 351 1676.39 332.2 1676.39 306.2C1676.39 280 1683.09 261.2 1696.49 249.8C1709.89 238.2 1728.79 232.4 1753.19 232.4C1778.19 232.4 1797.09 238.2 1809.89 249.8C1822.89 261.2 1829.39 280 1829.39 306.2C1829.39 332.2 1822.89 351 1809.89 362.6C1797.09 374.2 1778.19 380 1753.19 380ZM1753.19 341C1761.39 341 1767.09 338 1770.29 332C1773.49 325.8 1775.09 317.2 1775.09 306.2C1775.09 295 1773.49 286.4 1770.29 280.4C1767.09 274.4 1761.39 271.4 1753.19 271.4C1744.79 271.4 1738.89 274.4 1735.49 280.4C1732.29 286.4 1730.69 295 1730.69 306.2C1730.69 317.2 1732.29 325.8 1735.49 332C1738.89 338 1744.79 341 1753.19 341ZM1877.7 377L1839.9 274.4L1833.9 235.4H1890.9L1907.4 329H1913.4L1930.2 235.4H1986.9L1980.9 274.4L1940.7 377H1877.7ZM2071.12 380C2055.72 380 2042.02 377.7 2030.02 373.1C2018.02 368.5 2008.62 360.8 2001.82 350C1995.02 339.2 1991.62 324.6 1991.62 306.2C1991.62 293 1993.82 281.7 1998.22 272.3C2002.82 262.9 2008.92 255.3 2016.52 249.5C2024.12 243.5 2032.62 239.2 2042.02 236.6C2051.42 233.8 2061.12 232.4 2071.12 232.4C2088.32 232.4 2101.52 234.1 2110.72 237.5C2120.12 240.9 2126.32 243.6 2129.32 245.6L2144.32 293.3L2138.32 311.9H2045.32C2046.72 319.3 2050.42 325.5 2056.42 330.5C2062.42 335.5 2072.32 338 2086.12 338C2096.92 338 2106.22 336.8 2114.02 334.4C2121.82 332 2127.92 329.9 2132.32 328.1V368.3C2126.32 371.5 2117.62 374.3 2106.22 376.7C2095.02 378.9 2083.32 380 2071.12 380ZM2045.62 292.7L2087.02 286.7L2084.32 273.8C2082.92 273 2080.82 272.4 2078.02 272C2075.42 271.6 2073.12 271.4 2071.12 271.4C2065.52 271.4 2060.82 272.6 2057.02 275C2053.42 277.4 2050.62 280.3 2048.62 283.7C2046.82 286.9 2045.82 289.9 2045.62 292.7ZM2169.71 377V283.1L2163.41 253.1L2169.71 235.1H2210.51L2216.51 242C2216.51 242 2217.91 241.2 2220.71 239.6C2223.51 237.8 2227.41 236.1 2232.41 234.5C2237.61 232.9 2243.61 232.1 2250.41 232.1C2254.41 232.1 2258.41 232.4 2262.41 233C2266.41 233.6 2269.51 234.4 2271.71 235.4L2291.21 251.9L2271.71 290.3L2232.11 273.8L2223.11 276.8V377H2169.71ZM2339.07 380C2330.47 380 2322.47 378.8 2315.07 376.4C2307.87 373.8 2302.07 369.4 2297.67 363.2C2293.27 357 2291.07 348.4 2291.07 337.4C2291.07 327.4 2293.57 319.1 2298.57 312.5C2303.57 305.9 2310.37 301 2318.97 297.8C2327.57 294.6 2337.27 293 2348.07 293C2358.47 293 2366.27 294.2 2371.47 296.6C2376.67 298.8 2381.17 301.1 2384.97 303.5L2387.07 301.7C2387.07 295.7 2386.57 290.7 2385.57 286.7C2384.57 282.7 2382.27 279.7 2378.67 277.7C2375.07 275.5 2369.47 274.4 2361.87 274.4C2354.47 274.4 2346.57 275.1 2338.17 276.5C2329.97 277.7 2322.37 279.3 2315.37 281.3C2308.57 283.1 2303.47 284.9 2300.07 286.7V241.7C2306.27 239.5 2315.07 237.5 2326.47 235.7C2338.07 233.7 2352.27 232.7 2369.07 232.7C2387.07 232.7 2401.27 235 2411.67 239.6C2422.27 244 2429.87 250.5 2434.47 259.1C2439.07 267.5 2441.37 277.6 2441.37 289.4V329.3L2447.37 359.6L2441.37 377.3H2390.07V362.6L2387.07 361.1C2385.47 362.7 2382.67 365 2378.67 368C2374.67 371 2369.37 373.8 2362.77 376.4C2356.17 378.8 2348.27 380 2339.07 380ZM2364.57 340.7C2369.97 340.7 2374.57 340.2 2378.37 339.2C2382.37 338.2 2385.27 337.3 2387.07 336.5V330.8C2387.07 328.2 2385.17 325.7 2381.37 323.3C2377.77 320.9 2372.07 319.7 2364.27 319.7C2353.47 319.7 2348.07 323.5 2348.07 331.1C2348.07 334.3 2349.27 336.7 2351.67 338.3C2354.07 339.9 2358.37 340.7 2364.57 340.7ZM2536.12 449.9C2531.12 449.9 2525.42 449.7 2519.02 449.3C2512.62 449.1 2507.42 448.8 2503.42 448.4L2466.82 430.7L2481.82 391.7L2528.92 407C2555.52 407 2568.82 395.9 2568.82 373.7V368L2565.82 366.5C2563.02 369.3 2558.52 372.2 2552.32 375.2C2546.32 378 2536.82 379.4 2523.82 379.4C2514.42 379.4 2505.32 377.1 2496.52 372.5C2487.72 367.7 2480.52 360.1 2474.92 349.7C2469.52 339.3 2466.82 325.8 2466.82 309.2C2466.82 290.6 2469.62 275.7 2475.22 264.5C2480.82 253.1 2487.92 244.8 2496.52 239.6C2505.32 234.4 2514.42 231.8 2523.82 231.8C2534.22 231.8 2542.72 233.3 2549.32 236.3C2556.12 239.3 2560.62 242.2 2562.82 245V235.1H2617.12L2620.12 253.1L2616.82 271.1L2617.12 376.7C2617.12 393.9 2613.72 407.9 2606.92 418.7C2600.32 429.5 2590.92 437.4 2578.72 442.4C2566.72 447.4 2552.52 449.9 2536.12 449.9ZM2546.32 337.1C2549.92 337.1 2553.22 336.6 2556.22 335.6C2559.22 334.6 2561.42 333.7 2562.82 332.9V276.8C2562.02 276.2 2560.52 275.6 2558.32 275C2556.12 274.4 2553.12 274.1 2549.32 274.1C2541.52 274.1 2535.32 276.6 2530.72 281.6C2526.12 286.6 2523.82 294.7 2523.82 305.9C2523.82 316.9 2526.02 324.9 2530.42 329.9C2534.82 334.7 2540.12 337.1 2546.32 337.1ZM2719.17 380C2703.77 380 2690.07 377.7 2678.07 373.1C2666.07 368.5 2656.67 360.8 2649.87 350C2643.07 339.2 2639.67 324.6 2639.67 306.2C2639.67 293 2641.87 281.7 2646.27 272.3C2650.87 262.9 2656.97 255.3 2664.57 249.5C2672.17 243.5 2680.67 239.2 2690.07 236.6C2699.47 233.8 2709.17 232.4 2719.17 232.4C2736.37 232.4 2749.57 234.1 2758.77 237.5C2768.17 240.9 2774.37 243.6 2777.37 245.6L2792.37 293.3L2786.37 311.9H2693.37C2694.77 319.3 2698.47 325.5 2704.47 330.5C2710.47 335.5 2720.37 338 2734.17 338C2744.97 338 2754.27 336.8 2762.07 334.4C2769.87 332 2775.97 329.9 2780.37 328.1V368.3C2774.37 371.5 2765.67 374.3 2754.27 376.7C2743.07 378.9 2731.37 380 2719.17 380ZM2693.67 292.7L2735.07 286.7L2732.37 273.8C2730.97 273 2728.87 272.4 2726.07 272C2723.47 271.6 2721.17 271.4 2719.17 271.4C2713.57 271.4 2708.87 272.6 2705.07 275C2701.47 277.4 2698.67 280.3 2696.67 283.7C2694.87 286.9 2693.87 289.9 2693.67 292.7Z" fill="white"/>
<path d="M240 0C244.6 0 249.2 1 253.4 2.9L441.7 82.8C463.7 92.1 480.1 113.8 480 140C479.5 239.2 438.7 420.7 266.4 503.2C249.7 511.2 230.3 511.2 213.6 503.2C41.3005 420.7 0.500455 239.2 0.000454849 140C-0.0995452 113.8 16.3005 92.1 38.3005 82.8L226.7 2.9C230.8 1 235.4 0 240 0ZM240 66.8V444.9C378 378 415.1 230.1 416 141.4L240 66.8Z" fill="#F8F8F8"/>
</svg>
